<?xml version="1.0" encoding="utf-8"?>
<!-- Generator: Adobe Illustrator 21.1.0, SVG Export Plug-In . SVG Version: 6.00 Build 0)  -->
<svg version="1.1" id="Capa_1" xmlns="http://www.w3.org/2000/svg" xmlns:xlink="http://www.w3.org/1999/xlink" x="0px" y="0px"
	 viewBox="0 0 512 512" style="enable-background:new 0 0 512 512;" xml:space="preserve">
<style type="text/css">
	.st0{fill:#795ea1;}
</style>
<g>
	<g>
		<path class="st0" d="M437,75C388.7,26.6,324.4,0,256,0C187.6,0,123.3,26.6,75,75C26.6,123.3,0,187.6,0,256
			c0,68.4,26.6,132.7,75,181c48.4,48.4,112.6,75,181,75c68.4,0,132.7-26.6,181-75c48.4-48.4,75-112.6,75-181
			C512,187.6,485.4,123.3,437,75z M379.5,310.2c-21.6,49.4-70.3,81.3-124.2,81.3c-74.7,0-135.5-60.8-135.5-135.5
			s60.8-135.5,135.5-135.5c53.6,0,102.2,31.7,123.9,80.6c3.4,7.6-0.1,16.4-7.6,19.8s-16.4-0.1-19.8-7.6
			c-16.9-38.1-54.8-62.8-96.5-62.8c-58.2,0-105.5,47.3-105.5,105.5c0,58.2,47.3,105.5,105.5,105.5c42,0,79.9-24.8,96.7-63.3
			c3.3-7.6,12.2-11.1,19.8-7.7C379.4,293.8,382.9,302.6,379.5,310.2z"/>
	</g>
</g>
</svg>
